<?xml version="1.0" encoding="UTF-8" standalone="no"?>
<svg version="1.1" xmlns="http://www.w3.org/2000/svg" xmlns:xlink="http://www.w3.org/1999/xlink" width="16" height="16">
	<defs>
		<clipPath id="clip_dp_001" clipPathUnits="userSpaceOnUse">
			<path d="M 0,0 L 16,0 L 16,16 L 0,16 Z "/>
		</clipPath>
		<clipPath id="clip_dp_002" clipPathUnits="userSpaceOnUse">
			<path d="M 0,0 L 15.976,0 L 15.976,3.988 L 0,3.988 Z "/>
		</clipPath>
		<clipPath id="clip_dp_003" clipPathUnits="userSpaceOnUse">
			<path d="M 0,0 L 16,0 L 16,16 L 0,16 Z "/>
		</clipPath>
	</defs>
	<g id="clip" clip-path="url(#clip_dp_001)">
		<g id="clip" transform="matrix(1,0,0,1,-0.000666667,1.98759)" clip-path="url(#clip_dp_002)">
			<path id="dp_path001" fill="red" fill-rule="evenodd" stroke="none" stroke-width="0" d="M 0,1.916 C 0,0.857333 0.857333,0 1.916,0 L 14.0573,0 C 15.116,0 15.9733,0.857333 15.9733,1.916 L 15.9733,14.0933 C 15.9733,15.152 15.116,16.0093 14.0573,16.0093 L 1.916,16.0093 C 0.857333,16.0093 0,15.152 0,14.0933 Z "/>
		</g>
		<g id="dp_dp002" transform="matrix(1.24883,0,0,1,0.230388,15.6613)">
			<path id="dp_path003" fill="black" fill-rule="evenodd" stroke="none" stroke-width="0" d="M 5.564,-1.40267 L 5.564,0 L 0.274667,0 C 0.333333,-0.529333 0.504,-1.032 0.790667,-1.50667 C 1.07733,-1.98133 1.64267,-2.61067 2.48933,-3.39467 C 3.16933,-4.02933 3.58667,-4.45733 3.74,-4.684 C 3.948,-4.99467 4.052,-5.30267 4.052,-5.60667 C 4.052,-5.944 3.96133,-6.20267 3.78,-6.384 C 3.59867,-6.564 3.348,-6.65467 3.02933,-6.65467 C 2.71333,-6.65467 2.46267,-6.56 2.27467,-6.37067 C 2.08933,-6.18133 1.98133,-5.86667 1.952,-5.42667 L 0.449333,-5.57733 C 0.538667,-6.408 0.82,-7.00667 1.292,-7.368 C 1.76533,-7.73067 2.35733,-7.91067 3.06667,-7.91067 C 3.84267,-7.91067 4.45467,-7.70133 4.89733,-7.28133 C 5.34267,-6.86267 5.564,-6.34133 5.564,-5.71867 C 5.564,-5.364 5.50133,-5.02667 5.37333,-4.70533 C 5.24667,-4.384 5.04533,-4.048 4.76933,-3.69733 C 4.58667,-3.464 4.25733,-3.12933 3.78,-2.692 C 3.30133,-2.25467 3,-1.96533 2.87333,-1.82133 C 2.74533,-1.67867 2.64267,-1.53867 2.564,-1.40267 Z "/>
			<path id="dp_path004" fill="black" fill-rule="evenodd" stroke="none" stroke-width="0" d="M 6.48533,-2.02533 L 7.98933,-2.18133 C 8.032,-1.84 8.16,-1.57067 8.372,-1.37067 C 8.58267,-1.172 8.828,-1.072 9.104,-1.072 C 9.42,-1.072 9.688,-1.20133 9.90667,-1.45867 C 10.1253,-1.716 10.2347,-2.104 10.2347,-2.62133 C 10.2347,-3.108 10.1253,-3.472 9.90933,-3.71467 C 9.692,-3.95867 9.408,-4.07867 9.06,-4.07867 C 8.624,-4.07867 8.23467,-3.88667 7.88933,-3.50133 L 6.66933,-3.68 L 7.43867,-7.77333 L 11.436,-7.77333 L 11.436,-6.36133 L 8.58533,-6.36133 L 8.344,-5.02933 C 8.68133,-5.196 9.02533,-5.28 9.37733,-5.28 C 10.0493,-5.28 10.6187,-5.036 11.0853,-4.548 C 11.552,-4.05867 11.784,-3.42533 11.784,-2.64667 C 11.784,-1.996 11.596,-1.41733 11.22,-0.908 C 10.708,-0.210667 9.99733,0.137333 9.08667,0.137333 C 8.36,0.137333 7.76667,-0.0573333 7.308,-0.449333 C 6.84933,-0.84 6.576,-1.36533 6.48533,-2.02533 Z "/>
		</g>
	</g>
	<g id="clip">
		<path id="dp_path005" transform="matrix(1,0,0,1,3.34915,3.04543)" clip-path="url(#clip_dp_003)" fill="white" fill-rule="evenodd" stroke="none" stroke-width="0" d="M 0.973333,0 C 1.51067,0 1.94667,0.436 1.94667,0.973333 C 1.94667,1.51067 1.51067,1.94667 0.973333,1.94667 C 0.436,1.94667 0,1.51067 0,0.973333 C 0,0.436 0.436,0 0.973333,0 Z "/>
		<path id="dp_path006" transform="matrix(1,0,0,1,10.677,3.04543)" clip-path="url(#clip_dp_003)" fill="white" fill-rule="evenodd" stroke="none" stroke-width="0" d="M 0.973333,0 C 1.51067,0 1.94667,0.436 1.94667,0.973333 C 1.94667,1.51067 1.51067,1.94667 0.973333,1.94667 C 0.436,1.94667 0,1.51067 0,0.973333 C 0,0.436 0.436,0 0.973333,0 Z "/>
		<path id="dp_path007" transform="matrix(1,0,0,1,3.81076,0.000666667)" clip-path="url(#clip_dp_003)" fill="black" fill-rule="evenodd" stroke="none" stroke-width="0" d="M 0,0.512 C 0,0.229333 0.229333,0 0.512,0 C 0.793333,0 1.02267,0.229333 1.02267,0.512 L 1.02267,3.98267 C 1.02267,4.26533 0.793333,4.49467 0.512,4.49467 C 0.229333,4.49467 0,4.26533 0,3.98267 Z "/>
		<path id="dp_path008" transform="matrix(1,0,0,1,11.1386,0.000666667)" clip-path="url(#clip_dp_003)" fill="black" fill-rule="evenodd" stroke="none" stroke-width="0" d="M 0,0.512 C 0,0.229333 0.229333,0 0.512,0 C 0.793333,0 1.02267,0.229333 1.02267,0.512 L 1.02267,3.98267 C 1.02267,4.26533 0.793333,4.49467 0.512,4.49467 C 0.229333,4.49467 0,4.26533 0,3.98267 Z "/>
	</g>
</svg>