<?xml version="1.0" encoding="UTF-8" standalone="no"?>
<svg version="1.1" xmlns="http://www.w3.org/2000/svg" xmlns:xlink="http://www.w3.org/1999/xlink" width="150" height="150">
	<defs>
		<clipPath id="clip_dp_001" clipPathUnits="userSpaceOnUse">
			<path d="M 0,0 L 150,0 L 150,150 L 0,150 Z "/>
		</clipPath>
		<clipPath id="clip_dp_002" clipPathUnits="userSpaceOnUse">
			<path d="M 0,0 L 40.2053,0 L 40.2053,10.0347 L 0,10.0347 Z "/>
		</clipPath>
	</defs>
	<g id="clip" clip-path="url(#clip_dp_001)">
		<path id="dp_path001" transform="matrix(1,0,0,1,0.0487927,4.99977)" fill="#f8f8f8" fill-rule="evenodd" stroke="none" stroke-width="0" d="M 0,4.23067 C 0,1.89467 1.89467,0 4.23067,0 L 35.972,0 C 38.308,0 40.2027,1.89467 40.2027,4.23067 L 40.2027,31.028 C 40.2027,33.364 38.308,35.2587 35.972,35.2587 L 4.23067,35.2587 C 1.89467,35.2587 0,33.364 0,31.028 Z "/>
		<g id="clip" transform="matrix(1,0,0,1,-0.0153333,4.99977)" clip-path="url(#clip_dp_002)">
			<path id="dp_path002" fill="red" fill-rule="evenodd" stroke="none" stroke-width="0" d="M 0,4.824 C 0,2.16 2.16,0 4.824,0 L 35.3787,0 C 38.0427,0 40.2027,2.16 40.2027,4.824 L 40.2027,35.4667 C 40.2027,38.1307 38.0427,40.2907 35.3787,40.2907 L 4.824,40.2907 C 2.16,40.2907 0,38.1307 0,35.4667 Z "/>
		</g>
		<g id="dp_dp003" transform="matrix(1.00001,0,0,1,8.47548,34.595)">
			<path id="dp_path004" fill="black" fill-rule="evenodd" stroke="none" stroke-width="0" d="M 10.6227,-2.67733 L 10.6227,0 L 0.525333,0 C 0.634667,-1.012 0.962667,-1.97067 1.51067,-2.87733 C 2.056,-3.78133 3.136,-4.984 4.75067,-6.48 C 6.04933,-7.69067 6.84667,-8.51067 7.14,-8.94267 C 7.53733,-9.536 7.73467,-10.124 7.73467,-10.7053 C 7.73467,-11.3493 7.56133,-11.8427 7.21467,-12.1867 C 6.87067,-12.532 6.39333,-12.7053 5.78267,-12.7053 C 5.18,-12.7053 4.7,-12.5253 4.344,-12.1627 C 3.988,-11.8 3.78133,-11.2 3.728,-10.36 L 0.857333,-10.6467 C 1.02933,-12.2347 1.564,-13.3747 2.468,-14.0667 C 3.37067,-14.7573 4.49867,-15.1027 5.85333,-15.1027 C 7.336,-15.1027 8.50267,-14.7013 9.35067,-13.9013 C 10.1987,-13.1027 10.6227,-12.1067 10.6227,-10.916 C 10.6227,-10.2387 10.5013,-9.59467 10.2587,-8.98267 C 10.0173,-8.37067 9.632,-7.728 9.10533,-7.05733 C 8.75733,-6.61333 8.12667,-5.97467 7.21467,-5.14 C 6.304,-4.30533 5.72667,-3.752 5.484,-3.47733 C 5.24133,-3.204 5.04533,-2.93867 4.89467,-2.67733 Z "/>
			<path id="dp_path005" fill="black" fill-rule="evenodd" stroke="none" stroke-width="0" d="M 12.928,-3.868 L 15.7973,-4.16533 C 15.88,-3.51333 16.1227,-2.99733 16.5267,-2.61733 C 16.932,-2.23867 17.3987,-2.048 17.9253,-2.048 C 18.5293,-2.048 19.04,-2.292 19.4587,-2.784 C 19.8773,-3.276 20.0853,-4.016 20.0853,-5.00533 C 20.0853,-5.932 19.8773,-6.62933 19.4627,-7.09333 C 19.0467,-7.556 18.5067,-7.788 17.8413,-7.788 C 17.0107,-7.788 16.2667,-7.42 15.6067,-6.68533 L 13.2773,-7.024 L 14.748,-14.84 L 22.3773,-14.84 L 22.3773,-12.1453 L 16.9347,-12.1453 L 16.4747,-9.60267 C 17.1187,-9.92133 17.7773,-10.08 18.4493,-10.08 C 19.7293,-10.08 20.816,-9.61467 21.7067,-8.68133 C 22.5987,-7.74933 23.0427,-6.54 23.0427,-5.052 C 23.0427,-3.812 22.684,-2.70533 21.9667,-1.732 C 20.988,-0.402667 19.6307,0.262667 17.892,0.262667 C 16.504,0.262667 15.372,-0.110667 14.4973,-0.857333 C 13.6227,-1.60267 13.0987,-2.608 12.928,-3.868 Z "/>
		</g>
		<path id="dp_path006" transform="matrix(1,0,0,1,8.41532,7.662)" fill="white" fill-rule="evenodd" stroke="none" stroke-width="0" d="M 2.44933,0 C 3.80267,0 4.89867,1.096 4.89867,2.44933 C 4.89867,3.80267 3.80267,4.89867 2.44933,4.89867 C 1.096,4.89867 0,3.80267 0,2.44933 C 0,1.096 1.096,0 2.44933,0 Z "/>
		<path id="dp_path007" transform="matrix(1,0,0,1,26.8576,7.662)" fill="white" fill-rule="evenodd" stroke="none" stroke-width="0" d="M 2.44933,0 C 3.80267,0 4.89867,1.096 4.89867,2.44933 C 4.89867,3.80267 3.80267,4.89867 2.44933,4.89867 C 1.096,4.89867 0,3.80267 0,2.44933 C 0,1.096 1.096,0 2.44933,0 Z "/>
		<path id="dp_path008" transform="matrix(1,0,0,1,9.57707,-0.000666667)" fill="black" fill-rule="evenodd" stroke="none" stroke-width="0" d="M 0,1.288 C 0,0.576 0.576,0 1.288,0 C 1.99867,0 2.57467,0.576 2.57467,1.288 L 2.57467,10.0267 C 2.57467,10.7387 1.99867,11.3147 1.288,11.3147 C 0.576,11.3147 0,10.7387 0,10.0267 Z "/>
		<path id="dp_path009" transform="matrix(1,0,0,1,28.0193,-0.000666667)" fill="black" fill-rule="evenodd" stroke="none" stroke-width="0" d="M 0,1.288 C 0,0.576 0.576,0 1.288,0 C 1.99867,0 2.57467,0.576 2.57467,1.288 L 2.57467,10.0267 C 2.57467,10.7387 1.99867,11.3147 1.288,11.3147 C 0.576,11.3147 0,10.7387 0,10.0267 Z "/>
	</g>
</svg>